<svg xmlns="http://www.w3.org/2000/svg" xmlns:xlink="http://www.w3.org/1999/xlink" width="99" zoomAndPan="magnify" viewBox="0 0 75 74.999997" height="99" preserveAspectRatio="xMidYMid meet" version="1.0"><defs><clipPath id="a7521557c0"><path d="M 33 6.402344 L 43 6.402344 L 43 16 L 33 16 Z M 33 6.402344 " clip-rule="nonzero"/></clipPath><clipPath id="96833d9af5"><path d="M 33 57 L 43 57 L 43 67.152344 L 33 67.152344 Z M 33 57 " clip-rule="nonzero"/></clipPath><clipPath id="6f941ce4d8"><path d="M 7.5 32 L 18 32 L 18 42 L 7.5 42 Z M 7.5 32 " clip-rule="nonzero"/></clipPath><clipPath id="d7b605f28c"><path d="M 59 32 L 68.25 32 L 68.25 42 L 59 42 Z M 59 32 " clip-rule="nonzero"/></clipPath></defs><g clip-path="url(#a7521557c0)"><path fill="#ffffff" d="M 42.816406 11.175781 C 42.816406 11.488281 42.785156 11.800781 42.726562 12.105469 C 42.664062 12.414062 42.574219 12.710938 42.453125 13.003906 C 42.335938 13.292969 42.1875 13.566406 42.011719 13.828125 C 41.839844 14.089844 41.640625 14.328125 41.417969 14.550781 C 41.199219 14.773438 40.957031 14.96875 40.695312 15.144531 C 40.4375 15.316406 40.160156 15.464844 39.871094 15.585938 C 39.582031 15.707031 39.285156 15.796875 38.976562 15.855469 C 38.667969 15.917969 38.359375 15.949219 38.042969 15.949219 C 37.730469 15.949219 37.421875 15.917969 37.113281 15.855469 C 36.804688 15.796875 36.507812 15.707031 36.21875 15.585938 C 35.929688 15.464844 35.652344 15.316406 35.394531 15.144531 C 35.132812 14.96875 34.890625 14.773438 34.671875 14.550781 C 34.449219 14.328125 34.25 14.089844 34.078125 13.828125 C 33.902344 13.566406 33.753906 13.292969 33.636719 13.003906 C 33.515625 12.710938 33.425781 12.414062 33.363281 12.105469 C 33.304688 11.800781 33.273438 11.488281 33.273438 11.175781 C 33.273438 10.863281 33.304688 10.550781 33.363281 10.246094 C 33.425781 9.9375 33.515625 9.640625 33.636719 9.347656 C 33.753906 9.058594 33.902344 8.785156 34.078125 8.523438 C 34.25 8.265625 34.449219 8.023438 34.671875 7.800781 C 34.890625 7.578125 35.132812 7.382812 35.394531 7.207031 C 35.652344 7.035156 35.929688 6.886719 36.21875 6.765625 C 36.507812 6.648438 36.804688 6.554688 37.113281 6.496094 C 37.421875 6.433594 37.730469 6.402344 38.042969 6.402344 C 38.359375 6.402344 38.667969 6.433594 38.976562 6.496094 C 39.285156 6.554688 39.582031 6.648438 39.871094 6.765625 C 40.160156 6.886719 40.4375 7.035156 40.695312 7.207031 C 40.957031 7.382812 41.199219 7.578125 41.417969 7.800781 C 41.640625 8.023438 41.839844 8.265625 42.011719 8.523438 C 42.1875 8.785156 42.335938 9.058594 42.453125 9.347656 C 42.574219 9.640625 42.664062 9.9375 42.726562 10.246094 C 42.785156 10.550781 42.816406 10.863281 42.816406 11.175781 Z M 42.816406 11.175781 " fill-opacity="1" fill-rule="nonzero"/></g><g clip-path="url(#96833d9af5)"><path fill="#ffffff" d="M 42.816406 62.71875 C 42.816406 63.035156 42.785156 63.34375 42.726562 63.652344 C 42.664062 63.957031 42.574219 64.257812 42.453125 64.546875 C 42.335938 64.835938 42.1875 65.113281 42.011719 65.371094 C 41.839844 65.632812 41.640625 65.875 41.417969 66.09375 C 41.199219 66.316406 40.957031 66.515625 40.695312 66.6875 C 40.4375 66.863281 40.160156 67.011719 39.871094 67.128906 C 39.582031 67.25 39.285156 67.339844 38.976562 67.402344 C 38.667969 67.460938 38.359375 67.492188 38.042969 67.492188 C 37.730469 67.492188 37.421875 67.460938 37.113281 67.402344 C 36.804688 67.339844 36.507812 67.25 36.21875 67.128906 C 35.929688 67.011719 35.652344 66.863281 35.394531 66.6875 C 35.132812 66.515625 34.890625 66.316406 34.671875 66.09375 C 34.449219 65.875 34.25 65.632812 34.078125 65.371094 C 33.902344 65.113281 33.753906 64.835938 33.636719 64.546875 C 33.515625 64.257812 33.425781 63.957031 33.363281 63.652344 C 33.304688 63.34375 33.273438 63.035156 33.273438 62.71875 C 33.273438 62.40625 33.304688 62.097656 33.363281 61.789062 C 33.425781 61.480469 33.515625 61.183594 33.636719 60.894531 C 33.753906 60.605469 33.902344 60.328125 34.078125 60.070312 C 34.25 59.808594 34.449219 59.566406 34.671875 59.34375 C 34.890625 59.125 35.132812 58.925781 35.394531 58.753906 C 35.652344 58.578125 35.929688 58.429688 36.21875 58.3125 C 36.507812 58.191406 36.804688 58.101562 37.113281 58.039062 C 37.421875 57.976562 37.730469 57.949219 38.042969 57.949219 C 38.359375 57.949219 38.667969 57.976562 38.976562 58.039062 C 39.285156 58.101562 39.582031 58.191406 39.871094 58.3125 C 40.160156 58.429688 40.4375 58.578125 40.695312 58.753906 C 40.957031 58.925781 41.199219 59.125 41.417969 59.34375 C 41.640625 59.566406 41.839844 59.808594 42.011719 60.070312 C 42.1875 60.328125 42.335938 60.605469 42.453125 60.894531 C 42.574219 61.183594 42.664062 61.480469 42.726562 61.789062 C 42.785156 62.097656 42.816406 62.40625 42.816406 62.71875 Z M 42.816406 62.71875 " fill-opacity="1" fill-rule="nonzero"/></g><g clip-path="url(#6f941ce4d8)"><path fill="#ffffff" d="M 17.046875 36.949219 C 17.046875 37.261719 17.015625 37.570312 16.953125 37.878906 C 16.890625 38.1875 16.800781 38.484375 16.683594 38.773438 C 16.5625 39.0625 16.414062 39.339844 16.242188 39.601562 C 16.066406 39.859375 15.867188 40.101562 15.648438 40.324219 C 15.425781 40.542969 15.183594 40.742188 14.925781 40.917969 C 14.664062 41.089844 14.386719 41.238281 14.097656 41.359375 C 13.808594 41.476562 13.511719 41.566406 13.203125 41.628906 C 12.894531 41.691406 12.585938 41.722656 12.273438 41.722656 C 11.960938 41.722656 11.648438 41.691406 11.339844 41.628906 C 11.035156 41.566406 10.734375 41.476562 10.445312 41.359375 C 10.15625 41.238281 9.882812 41.089844 9.621094 40.917969 C 9.359375 40.742188 9.121094 40.542969 8.898438 40.324219 C 8.675781 40.101562 8.476562 39.859375 8.304688 39.601562 C 8.128906 39.339844 7.984375 39.0625 7.863281 38.773438 C 7.742188 38.484375 7.652344 38.1875 7.589844 37.878906 C 7.53125 37.570312 7.5 37.261719 7.5 36.949219 C 7.5 36.632812 7.53125 36.324219 7.589844 36.015625 C 7.652344 35.710938 7.742188 35.410156 7.863281 35.121094 C 7.984375 34.832031 8.128906 34.558594 8.304688 34.296875 C 8.476562 34.035156 8.675781 33.796875 8.898438 33.574219 C 9.121094 33.351562 9.359375 33.152344 9.621094 32.980469 C 9.882812 32.804688 10.15625 32.660156 10.445312 32.539062 C 10.734375 32.417969 11.035156 32.328125 11.339844 32.265625 C 11.648438 32.207031 11.960938 32.175781 12.273438 32.175781 C 12.585938 32.175781 12.894531 32.207031 13.203125 32.265625 C 13.511719 32.328125 13.808594 32.417969 14.097656 32.539062 C 14.386719 32.660156 14.664062 32.804688 14.925781 32.980469 C 15.183594 33.152344 15.425781 33.351562 15.648438 33.574219 C 15.867188 33.796875 16.066406 34.035156 16.242188 34.296875 C 16.414062 34.558594 16.5625 34.832031 16.683594 35.121094 C 16.800781 35.410156 16.890625 35.710938 16.953125 36.015625 C 17.015625 36.324219 17.046875 36.632812 17.046875 36.949219 Z M 17.046875 36.949219 " fill-opacity="1" fill-rule="nonzero"/></g><g clip-path="url(#d7b605f28c)"><path fill="#ffffff" d="M 68.589844 36.949219 C 68.589844 37.261719 68.558594 37.570312 68.496094 37.878906 C 68.4375 38.1875 68.347656 38.484375 68.226562 38.773438 C 68.105469 39.0625 67.960938 39.339844 67.785156 39.601562 C 67.609375 39.859375 67.414062 40.101562 67.191406 40.324219 C 66.96875 40.542969 66.730469 40.742188 66.46875 40.917969 C 66.207031 41.089844 65.933594 41.238281 65.644531 41.359375 C 65.355469 41.476562 65.054688 41.566406 64.75 41.628906 C 64.441406 41.691406 64.128906 41.722656 63.816406 41.722656 C 63.503906 41.722656 63.191406 41.691406 62.886719 41.628906 C 62.578125 41.566406 62.28125 41.476562 61.992188 41.359375 C 61.699219 41.238281 61.425781 41.089844 61.164062 40.917969 C 60.90625 40.742188 60.664062 40.542969 60.441406 40.324219 C 60.222656 40.101562 60.023438 39.859375 59.847656 39.601562 C 59.675781 39.339844 59.527344 39.0625 59.40625 38.773438 C 59.289062 38.484375 59.199219 38.1875 59.136719 37.878906 C 59.074219 37.570312 59.042969 37.261719 59.042969 36.949219 C 59.042969 36.632812 59.074219 36.324219 59.136719 36.015625 C 59.199219 35.710938 59.289062 35.410156 59.40625 35.121094 C 59.527344 34.832031 59.675781 34.558594 59.847656 34.296875 C 60.023438 34.035156 60.222656 33.796875 60.441406 33.574219 C 60.664062 33.351562 60.90625 33.152344 61.164062 32.980469 C 61.425781 32.804688 61.699219 32.660156 61.992188 32.539062 C 62.28125 32.417969 62.578125 32.328125 62.886719 32.265625 C 63.191406 32.207031 63.503906 32.175781 63.816406 32.175781 C 64.128906 32.175781 64.441406 32.207031 64.75 32.265625 C 65.054688 32.328125 65.355469 32.417969 65.644531 32.539062 C 65.933594 32.660156 66.207031 32.804688 66.46875 32.980469 C 66.730469 33.152344 66.96875 33.351562 67.191406 33.574219 C 67.414062 33.796875 67.609375 34.035156 67.785156 34.296875 C 67.960938 34.558594 68.105469 34.832031 68.226562 35.121094 C 68.347656 35.410156 68.4375 35.710938 68.496094 36.015625 C 68.558594 36.324219 68.589844 36.632812 68.589844 36.949219 Z M 68.589844 36.949219 " fill-opacity="1" fill-rule="nonzero"/></g><path fill="#ffffff" d="M 20.863281 36.949219 C 20.863281 32.546875 22.519531 28.53125 25.238281 25.492188 L 20.511719 20.765625 C 17.910156 23.578125 15.980469 27.019531 14.972656 30.839844 C 17.316406 31.878906 18.953125 34.222656 18.953125 36.949219 C 18.953125 39.671875 17.3125 42.019531 14.972656 43.058594 C 15.980469 46.875 17.910156 50.316406 20.511719 53.132812 L 25.238281 48.402344 C 22.519531 45.363281 20.863281 41.347656 20.863281 36.949219 Z M 20.863281 36.949219 " fill-opacity="1" fill-rule="nonzero"/><path fill="#ffffff" d="M 38.042969 19.765625 C 42.445312 19.765625 46.460938 21.421875 49.5 24.144531 L 54.226562 19.414062 C 51.414062 16.816406 47.972656 14.882812 44.15625 13.875 C 43.117188 16.21875 40.769531 17.855469 38.042969 17.855469 C 35.320312 17.855469 32.972656 16.21875 31.933594 13.875 C 28.117188 14.882812 24.675781 16.816406 21.863281 19.414062 L 26.589844 24.144531 C 29.628906 21.421875 33.644531 19.765625 38.042969 19.765625 Z M 38.042969 19.765625 " fill-opacity="1" fill-rule="nonzero"/><path fill="#ffffff" d="M 57.136719 36.949219 C 57.136719 34.222656 58.773438 31.878906 61.117188 30.839844 C 60.109375 27.019531 58.175781 23.578125 55.578125 20.765625 L 50.847656 25.492188 C 53.570312 28.535156 55.226562 32.546875 55.226562 36.949219 C 55.226562 41.347656 53.570312 45.363281 50.847656 48.402344 L 55.578125 53.132812 C 58.175781 50.316406 60.109375 46.875 61.117188 43.058594 C 58.773438 42.019531 57.136719 39.671875 57.136719 36.949219 Z M 57.136719 36.949219 " fill-opacity="1" fill-rule="nonzero"/><path fill="#ffffff" d="M 38.042969 54.128906 C 33.644531 54.128906 29.628906 52.472656 26.589844 49.753906 L 21.863281 54.480469 C 24.675781 57.082031 28.117188 59.011719 31.933594 60.023438 C 32.972656 57.679688 35.320312 56.039062 38.042969 56.039062 C 40.769531 56.039062 43.117188 57.679688 44.15625 60.023438 C 47.972656 59.011719 51.414062 57.082031 54.226562 54.480469 L 49.5 49.753906 C 46.460938 52.476562 42.445312 54.128906 38.042969 54.128906 Z M 38.042969 54.128906 " fill-opacity="1" fill-rule="nonzero"/></svg>