<svg xmlns="http://www.w3.org/2000/svg" xmlns:xlink="http://www.w3.org/1999/xlink" width="99" zoomAndPan="magnify" viewBox="0 0 75 74.999997" height="99" preserveAspectRatio="xMidYMid meet" version="1.0"><defs><clipPath id="33496e4030"><path d="M 33 3.660156 L 41 3.660156 L 41 11 L 33 11 Z M 33 3.660156 " clip-rule="nonzero"/></clipPath><clipPath id="0823c1f6d6"><path d="M 3.660156 33 L 11 33 L 11 41 L 3.660156 41 Z M 3.660156 33 " clip-rule="nonzero"/></clipPath></defs><g clip-path="url(#33496e4030)"><path fill="#ffffff" d="M 40.585938 7.019531 C 40.585938 6.574219 40.5 6.144531 40.332031 5.734375 C 40.160156 5.324219 39.917969 4.960938 39.601562 4.644531 C 39.289062 4.328125 38.925781 4.085938 38.515625 3.917969 C 38.101562 3.746094 37.675781 3.660156 37.230469 3.660156 C 36.785156 3.660156 36.355469 3.746094 35.945312 3.917969 C 35.535156 4.085938 35.171875 4.328125 34.855469 4.644531 C 34.542969 4.960938 34.300781 5.324219 34.128906 5.734375 C 33.957031 6.144531 33.871094 6.574219 33.871094 7.019531 C 33.871094 7.464844 33.957031 7.890625 34.128906 8.304688 C 34.300781 8.714844 34.542969 9.078125 34.855469 9.390625 C 35.171875 9.707031 35.535156 9.949219 35.945312 10.121094 C 36.355469 10.289062 36.785156 10.375 37.230469 10.375 C 37.675781 10.375 38.101562 10.289062 38.515625 10.121094 C 38.925781 9.949219 39.289062 9.707031 39.601562 9.390625 C 39.917969 9.078125 40.160156 8.714844 40.332031 8.304688 C 40.5 7.890625 40.585938 7.464844 40.585938 7.019531 Z M 36.109375 7.019531 C 36.109375 6.871094 36.140625 6.726562 36.195312 6.589844 C 36.253906 6.453125 36.332031 6.332031 36.4375 6.226562 C 36.542969 6.121094 36.664062 6.042969 36.800781 5.984375 C 36.9375 5.929688 37.082031 5.898438 37.230469 5.898438 C 37.378906 5.898438 37.519531 5.929688 37.65625 5.984375 C 37.796875 6.042969 37.917969 6.121094 38.019531 6.226562 C 38.125 6.332031 38.207031 6.453125 38.261719 6.589844 C 38.320312 6.726562 38.347656 6.871094 38.347656 7.019531 C 38.347656 7.167969 38.320312 7.308594 38.261719 7.445312 C 38.207031 7.582031 38.125 7.703125 38.019531 7.808594 C 37.917969 7.914062 37.796875 7.996094 37.65625 8.050781 C 37.519531 8.109375 37.378906 8.136719 37.230469 8.136719 C 37.082031 8.136719 36.9375 8.109375 36.800781 8.050781 C 36.664062 7.996094 36.542969 7.914062 36.4375 7.808594 C 36.332031 7.703125 36.253906 7.582031 36.195312 7.445312 C 36.140625 7.308594 36.109375 7.167969 36.109375 7.019531 Z M 36.109375 7.019531 " fill-opacity="1" fill-rule="nonzero"/></g><path fill="#ffffff" d="M 31.636719 17.324219 L 31.636719 24.921875 C 31.636719 25.070312 31.664062 25.210938 31.71875 25.351562 C 31.777344 25.488281 31.859375 25.609375 31.960938 25.710938 C 32.066406 25.816406 32.1875 25.898438 32.324219 25.957031 C 32.464844 26.011719 32.605469 26.039062 32.753906 26.039062 L 33.871094 26.039062 L 33.871094 30.515625 C 33.871094 30.664062 33.902344 30.808594 33.957031 30.945312 C 34.015625 31.082031 34.097656 31.203125 34.199219 31.308594 C 34.304688 31.414062 34.425781 31.492188 34.5625 31.550781 C 34.699219 31.605469 34.84375 31.636719 34.992188 31.636719 L 39.46875 31.636719 C 39.617188 31.636719 39.757812 31.605469 39.894531 31.550781 C 40.03125 31.492188 40.152344 31.414062 40.257812 31.308594 C 40.363281 31.203125 40.445312 31.082031 40.5 30.945312 C 40.558594 30.808594 40.585938 30.664062 40.585938 30.515625 L 40.585938 26.039062 L 41.707031 26.039062 C 41.855469 26.039062 41.996094 26.011719 42.132812 25.957031 C 42.269531 25.898438 42.390625 25.816406 42.496094 25.710938 C 42.601562 25.609375 42.683594 25.488281 42.738281 25.351562 C 42.796875 25.210938 42.824219 25.070312 42.824219 24.921875 L 42.824219 17.324219 C 42.824219 16.957031 42.789062 16.59375 42.71875 16.230469 C 42.644531 15.871094 42.539062 15.523438 42.398438 15.183594 C 42.257812 14.84375 42.085938 14.519531 41.882812 14.214844 C 41.675781 13.910156 41.445312 13.628906 41.1875 13.367188 C 40.925781 13.109375 40.644531 12.875 40.339844 12.671875 C 40.03125 12.46875 39.710938 12.296875 39.371094 12.15625 C 39.03125 12.015625 38.679688 11.910156 38.320312 11.835938 C 37.960938 11.765625 37.597656 11.730469 37.230469 11.730469 C 36.863281 11.730469 36.5 11.765625 36.136719 11.835938 C 35.777344 11.910156 35.429688 12.015625 35.089844 12.15625 C 34.75 12.296875 34.425781 12.46875 34.121094 12.671875 C 33.816406 12.875 33.535156 13.109375 33.273438 13.367188 C 33.015625 13.628906 32.78125 13.910156 32.578125 14.214844 C 32.375 14.519531 32.203125 14.84375 32.0625 15.183594 C 31.921875 15.523438 31.8125 15.871094 31.742188 16.230469 C 31.671875 16.59375 31.636719 16.957031 31.636719 17.324219 Z M 33.871094 17.324219 C 33.871094 16.878906 33.957031 16.449219 34.128906 16.039062 C 34.300781 15.628906 34.542969 15.265625 34.855469 14.949219 C 35.171875 14.636719 35.535156 14.394531 35.945312 14.222656 C 36.355469 14.050781 36.785156 13.96875 37.230469 13.96875 C 37.675781 13.96875 38.101562 14.050781 38.515625 14.222656 C 38.925781 14.394531 39.289062 14.636719 39.601562 14.949219 C 39.917969 15.265625 40.160156 15.628906 40.332031 16.039062 C 40.5 16.449219 40.585938 16.878906 40.585938 17.324219 L 40.585938 23.800781 L 39.46875 23.800781 C 39.320312 23.800781 39.175781 23.832031 39.039062 23.886719 C 38.902344 23.945312 38.78125 24.023438 38.675781 24.128906 C 38.570312 24.234375 38.492188 24.355469 38.433594 24.492188 C 38.378906 24.628906 38.347656 24.773438 38.347656 24.921875 L 38.347656 29.398438 L 36.109375 29.398438 L 36.109375 24.921875 C 36.109375 24.773438 36.082031 24.628906 36.027344 24.492188 C 35.96875 24.355469 35.886719 24.234375 35.78125 24.128906 C 35.679688 24.023438 35.558594 23.945312 35.421875 23.886719 C 35.28125 23.832031 35.140625 23.800781 34.992188 23.800781 L 33.871094 23.800781 Z M 33.871094 17.324219 " fill-opacity="1" fill-rule="nonzero"/><path fill="#ffffff" d="M 33.871094 67.441406 C 33.871094 67.886719 33.957031 68.316406 34.128906 68.726562 C 34.300781 69.136719 34.542969 69.5 34.855469 69.816406 C 35.171875 70.128906 35.535156 70.371094 35.945312 70.542969 C 36.355469 70.714844 36.785156 70.796875 37.230469 70.796875 C 37.675781 70.796875 38.101562 70.714844 38.515625 70.542969 C 38.925781 70.371094 39.289062 70.128906 39.601562 69.816406 C 39.917969 69.5 40.160156 69.136719 40.332031 68.726562 C 40.5 68.316406 40.585938 67.886719 40.585938 67.441406 C 40.585938 66.996094 40.5 66.566406 40.332031 66.15625 C 40.160156 65.746094 39.917969 65.382812 39.601562 65.066406 C 39.289062 64.753906 38.925781 64.511719 38.515625 64.339844 C 38.101562 64.167969 37.675781 64.085938 37.230469 64.085938 C 36.785156 64.085938 36.355469 64.167969 35.945312 64.339844 C 35.535156 64.511719 35.171875 64.753906 34.855469 65.066406 C 34.542969 65.382812 34.300781 65.746094 34.128906 66.15625 C 33.957031 66.566406 33.871094 66.996094 33.871094 67.441406 Z M 38.347656 67.441406 C 38.347656 67.589844 38.320312 67.734375 38.261719 67.871094 C 38.207031 68.007812 38.125 68.128906 38.019531 68.234375 C 37.917969 68.335938 37.796875 68.417969 37.65625 68.476562 C 37.519531 68.53125 37.378906 68.558594 37.230469 68.558594 C 37.082031 68.558594 36.9375 68.53125 36.800781 68.476562 C 36.664062 68.417969 36.542969 68.335938 36.4375 68.234375 C 36.332031 68.128906 36.253906 68.007812 36.195312 67.871094 C 36.140625 67.734375 36.109375 67.589844 36.109375 67.441406 C 36.109375 67.292969 36.140625 67.148438 36.195312 67.011719 C 36.253906 66.875 36.332031 66.753906 36.4375 66.648438 C 36.542969 66.546875 36.664062 66.464844 36.800781 66.40625 C 36.9375 66.351562 37.082031 66.324219 37.230469 66.324219 C 37.378906 66.324219 37.519531 66.351562 37.65625 66.40625 C 37.796875 66.464844 37.917969 66.546875 38.019531 66.648438 C 38.125 66.753906 38.207031 66.875 38.261719 67.011719 C 38.320312 67.148438 38.347656 67.292969 38.347656 67.441406 Z M 38.347656 67.441406 " fill-opacity="1" fill-rule="nonzero"/><path fill="#ffffff" d="M 31.636719 57.136719 C 31.636719 57.503906 31.671875 57.867188 31.742188 58.226562 C 31.8125 58.585938 31.921875 58.9375 32.0625 59.277344 C 32.203125 59.617188 32.375 59.9375 32.578125 60.246094 C 32.78125 60.550781 33.015625 60.832031 33.273438 61.09375 C 33.535156 61.351562 33.816406 61.582031 34.121094 61.789062 C 34.425781 61.992188 34.75 62.164062 35.089844 62.304688 C 35.429688 62.445312 35.777344 62.550781 36.136719 62.625 C 36.5 62.695312 36.863281 62.730469 37.230469 62.730469 C 37.597656 62.730469 37.960938 62.695312 38.320312 62.625 C 38.679688 62.550781 39.03125 62.445312 39.371094 62.304688 C 39.710938 62.164062 40.03125 61.992188 40.339844 61.789062 C 40.644531 61.582031 40.925781 61.351562 41.1875 61.09375 C 41.445312 60.832031 41.675781 60.550781 41.882812 60.246094 C 42.085938 59.9375 42.257812 59.617188 42.398438 59.277344 C 42.539062 58.9375 42.644531 58.585938 42.71875 58.226562 C 42.789062 57.867188 42.824219 57.503906 42.824219 57.136719 L 42.824219 49.539062 C 42.824219 49.390625 42.796875 49.246094 42.738281 49.109375 C 42.683594 48.972656 42.601562 48.851562 42.496094 48.746094 C 42.390625 48.640625 42.269531 48.5625 42.132812 48.503906 C 41.996094 48.449219 41.855469 48.417969 41.707031 48.417969 L 40.585938 48.417969 L 40.585938 43.945312 C 40.585938 43.796875 40.558594 43.652344 40.5 43.515625 C 40.445312 43.378906 40.363281 43.257812 40.257812 43.152344 C 40.152344 43.046875 40.03125 42.964844 39.894531 42.910156 C 39.757812 42.851562 39.617188 42.824219 39.46875 42.824219 L 34.992188 42.824219 C 34.84375 42.824219 34.699219 42.851562 34.5625 42.910156 C 34.425781 42.964844 34.304688 43.046875 34.199219 43.152344 C 34.097656 43.257812 34.015625 43.378906 33.957031 43.515625 C 33.902344 43.652344 33.871094 43.796875 33.871094 43.945312 L 33.871094 48.417969 L 32.753906 48.417969 C 32.605469 48.417969 32.464844 48.449219 32.324219 48.503906 C 32.1875 48.5625 32.066406 48.640625 31.960938 48.746094 C 31.859375 48.851562 31.777344 48.972656 31.71875 49.109375 C 31.664062 49.246094 31.636719 49.390625 31.636719 49.539062 Z M 33.871094 50.65625 L 34.992188 50.65625 C 35.140625 50.65625 35.28125 50.628906 35.421875 50.570312 C 35.558594 50.515625 35.679688 50.433594 35.78125 50.328125 C 35.886719 50.222656 35.96875 50.105469 36.027344 49.964844 C 36.082031 49.828125 36.109375 49.6875 36.109375 49.539062 L 36.109375 45.0625 L 38.347656 45.0625 L 38.347656 49.539062 C 38.347656 49.6875 38.378906 49.828125 38.433594 49.964844 C 38.492188 50.105469 38.570312 50.222656 38.675781 50.328125 C 38.78125 50.433594 38.902344 50.515625 39.039062 50.570312 C 39.175781 50.628906 39.320312 50.65625 39.46875 50.65625 L 40.585938 50.65625 L 40.585938 57.136719 C 40.585938 57.582031 40.5 58.007812 40.332031 58.421875 C 40.160156 58.832031 39.917969 59.195312 39.601562 59.507812 C 39.289062 59.824219 38.925781 60.066406 38.515625 60.238281 C 38.101562 60.40625 37.675781 60.492188 37.230469 60.492188 C 36.785156 60.492188 36.355469 60.40625 35.945312 60.238281 C 35.535156 60.066406 35.171875 59.824219 34.855469 59.507812 C 34.542969 59.195312 34.300781 58.832031 34.128906 58.421875 C 33.957031 58.007812 33.871094 57.582031 33.871094 57.136719 Z M 33.871094 50.65625 " fill-opacity="1" fill-rule="nonzero"/><path fill="#ffffff" d="M 67.441406 33.871094 C 66.996094 33.871094 66.566406 33.957031 66.15625 34.128906 C 65.746094 34.300781 65.382812 34.542969 65.066406 34.855469 C 64.753906 35.171875 64.511719 35.535156 64.339844 35.945312 C 64.167969 36.355469 64.085938 36.785156 64.085938 37.230469 C 64.085938 37.675781 64.167969 38.101562 64.339844 38.515625 C 64.511719 38.925781 64.753906 39.289062 65.066406 39.601562 C 65.382812 39.917969 65.746094 40.160156 66.15625 40.332031 C 66.566406 40.5 66.996094 40.585938 67.441406 40.585938 C 67.886719 40.585938 68.316406 40.5 68.726562 40.332031 C 69.136719 40.160156 69.5 39.917969 69.816406 39.601562 C 70.128906 39.289062 70.371094 38.925781 70.542969 38.515625 C 70.714844 38.101562 70.796875 37.675781 70.796875 37.230469 C 70.796875 36.785156 70.714844 36.355469 70.542969 35.945312 C 70.371094 35.535156 70.128906 35.171875 69.816406 34.855469 C 69.5 34.542969 69.136719 34.300781 68.726562 34.128906 C 68.316406 33.957031 67.886719 33.871094 67.441406 33.871094 Z M 67.441406 38.347656 C 67.292969 38.347656 67.148438 38.320312 67.011719 38.261719 C 66.875 38.207031 66.753906 38.125 66.648438 38.019531 C 66.546875 37.917969 66.464844 37.796875 66.40625 37.65625 C 66.351562 37.519531 66.324219 37.378906 66.324219 37.230469 C 66.324219 37.082031 66.351562 36.9375 66.40625 36.800781 C 66.464844 36.664062 66.546875 36.542969 66.648438 36.4375 C 66.753906 36.332031 66.875 36.253906 67.011719 36.195312 C 67.148438 36.140625 67.292969 36.109375 67.441406 36.109375 C 67.589844 36.109375 67.734375 36.140625 67.871094 36.195312 C 68.007812 36.253906 68.128906 36.332031 68.234375 36.4375 C 68.335938 36.542969 68.417969 36.664062 68.476562 36.800781 C 68.53125 36.9375 68.558594 37.082031 68.558594 37.230469 C 68.558594 37.378906 68.53125 37.519531 68.476562 37.65625 C 68.417969 37.796875 68.335938 37.917969 68.234375 38.019531 C 68.128906 38.125 68.007812 38.207031 67.871094 38.261719 C 67.734375 38.320312 67.589844 38.347656 67.441406 38.347656 Z M 67.441406 38.347656 " fill-opacity="1" fill-rule="nonzero"/><path fill="#ffffff" d="M 42.824219 34.992188 L 42.824219 39.46875 C 42.824219 39.617188 42.851562 39.757812 42.910156 39.894531 C 42.964844 40.03125 43.046875 40.152344 43.152344 40.257812 C 43.257812 40.363281 43.378906 40.445312 43.515625 40.5 C 43.652344 40.558594 43.796875 40.585938 43.945312 40.585938 L 48.417969 40.585938 L 48.417969 41.707031 C 48.417969 41.855469 48.449219 41.996094 48.503906 42.132812 C 48.5625 42.269531 48.640625 42.390625 48.746094 42.496094 C 48.851562 42.601562 48.972656 42.683594 49.109375 42.738281 C 49.246094 42.796875 49.390625 42.824219 49.539062 42.824219 L 57.136719 42.824219 C 57.503906 42.824219 57.867188 42.789062 58.226562 42.71875 C 58.585938 42.644531 58.9375 42.539062 59.277344 42.398438 C 59.617188 42.257812 59.9375 42.085938 60.246094 41.882812 C 60.550781 41.675781 60.832031 41.445312 61.09375 41.1875 C 61.351562 40.925781 61.582031 40.644531 61.789062 40.339844 C 61.992188 40.03125 62.164062 39.710938 62.304688 39.371094 C 62.445312 39.03125 62.550781 38.679688 62.625 38.320312 C 62.695312 37.960938 62.730469 37.597656 62.730469 37.230469 C 62.730469 36.863281 62.695312 36.5 62.625 36.136719 C 62.550781 35.777344 62.445312 35.429688 62.304688 35.089844 C 62.164062 34.75 61.992188 34.425781 61.789062 34.121094 C 61.582031 33.816406 61.351562 33.535156 61.09375 33.273438 C 60.832031 33.015625 60.550781 32.78125 60.246094 32.578125 C 59.9375 32.375 59.617188 32.203125 59.277344 32.0625 C 58.9375 31.921875 58.585938 31.8125 58.226562 31.742188 C 57.867188 31.671875 57.503906 31.636719 57.136719 31.636719 L 49.539062 31.636719 C 49.390625 31.636719 49.246094 31.664062 49.109375 31.71875 C 48.972656 31.777344 48.851562 31.859375 48.746094 31.960938 C 48.640625 32.066406 48.5625 32.1875 48.503906 32.324219 C 48.449219 32.464844 48.417969 32.605469 48.417969 32.753906 L 48.417969 33.871094 L 43.945312 33.871094 C 43.796875 33.871094 43.652344 33.902344 43.515625 33.957031 C 43.378906 34.015625 43.257812 34.097656 43.152344 34.199219 C 43.046875 34.304688 42.964844 34.425781 42.910156 34.5625 C 42.851562 34.699219 42.824219 34.84375 42.824219 34.992188 Z M 45.0625 36.109375 L 49.539062 36.109375 C 49.6875 36.109375 49.828125 36.082031 49.964844 36.027344 C 50.105469 35.96875 50.222656 35.886719 50.328125 35.78125 C 50.433594 35.679688 50.515625 35.558594 50.570312 35.421875 C 50.628906 35.28125 50.65625 35.140625 50.65625 34.992188 L 50.65625 33.871094 L 57.136719 33.871094 C 57.582031 33.871094 58.007812 33.957031 58.421875 34.128906 C 58.832031 34.300781 59.195312 34.542969 59.507812 34.855469 C 59.824219 35.171875 60.066406 35.535156 60.238281 35.945312 C 60.40625 36.355469 60.492188 36.785156 60.492188 37.230469 C 60.492188 37.675781 60.40625 38.101562 60.238281 38.515625 C 60.066406 38.925781 59.824219 39.289062 59.507812 39.601562 C 59.195312 39.917969 58.832031 40.160156 58.421875 40.332031 C 58.007812 40.5 57.582031 40.585938 57.136719 40.585938 L 50.65625 40.585938 L 50.65625 39.46875 C 50.65625 39.320312 50.628906 39.175781 50.570312 39.039062 C 50.515625 38.902344 50.433594 38.78125 50.328125 38.675781 C 50.222656 38.570312 50.105469 38.492188 49.964844 38.433594 C 49.828125 38.378906 49.6875 38.347656 49.539062 38.347656 L 45.0625 38.347656 Z M 45.0625 36.109375 " fill-opacity="1" fill-rule="nonzero"/><g clip-path="url(#0823c1f6d6)"><path fill="#ffffff" d="M 10.375 37.230469 C 10.375 36.785156 10.289062 36.355469 10.121094 35.945312 C 9.949219 35.535156 9.707031 35.171875 9.390625 34.855469 C 9.078125 34.542969 8.714844 34.300781 8.304688 34.128906 C 7.890625 33.957031 7.464844 33.871094 7.019531 33.871094 C 6.574219 33.871094 6.144531 33.957031 5.734375 34.128906 C 5.324219 34.300781 4.960938 34.542969 4.644531 34.855469 C 4.328125 35.171875 4.085938 35.535156 3.917969 35.945312 C 3.746094 36.355469 3.660156 36.785156 3.660156 37.230469 C 3.660156 37.675781 3.746094 38.101562 3.917969 38.515625 C 4.085938 38.925781 4.328125 39.289062 4.644531 39.601562 C 4.960938 39.917969 5.324219 40.160156 5.734375 40.332031 C 6.144531 40.5 6.574219 40.585938 7.019531 40.585938 C 7.464844 40.585938 7.890625 40.5 8.304688 40.332031 C 8.714844 40.160156 9.078125 39.917969 9.390625 39.601562 C 9.707031 39.289062 9.949219 38.925781 10.121094 38.515625 C 10.289062 38.101562 10.375 37.675781 10.375 37.230469 Z M 5.898438 37.230469 C 5.898438 37.082031 5.929688 36.9375 5.984375 36.800781 C 6.042969 36.664062 6.121094 36.542969 6.226562 36.4375 C 6.332031 36.332031 6.453125 36.253906 6.589844 36.195312 C 6.726562 36.140625 6.871094 36.109375 7.019531 36.109375 C 7.167969 36.109375 7.308594 36.140625 7.445312 36.195312 C 7.582031 36.253906 7.703125 36.332031 7.808594 36.4375 C 7.914062 36.542969 7.996094 36.664062 8.050781 36.800781 C 8.109375 36.9375 8.136719 37.082031 8.136719 37.230469 C 8.136719 37.378906 8.109375 37.519531 8.050781 37.65625 C 7.996094 37.796875 7.914062 37.917969 7.808594 38.019531 C 7.703125 38.125 7.582031 38.207031 7.445312 38.261719 C 7.308594 38.320312 7.167969 38.347656 7.019531 38.347656 C 6.871094 38.347656 6.726562 38.320312 6.589844 38.261719 C 6.453125 38.207031 6.332031 38.125 6.226562 38.019531 C 6.121094 37.917969 6.042969 37.796875 5.984375 37.65625 C 5.929688 37.519531 5.898438 37.378906 5.898438 37.230469 Z M 5.898438 37.230469 " fill-opacity="1" fill-rule="nonzero"/></g><path fill="#ffffff" d="M 11.492188 37.230469 C 11.503906 37.605469 11.546875 37.976562 11.628906 38.339844 C 11.707031 38.707031 11.824219 39.0625 11.976562 39.40625 C 12.125 39.75 12.308594 40.074219 12.523438 40.382812 C 12.738281 40.691406 12.980469 40.972656 13.25 41.234375 C 13.523438 41.492188 13.816406 41.722656 14.132812 41.925781 C 14.449219 42.128906 14.78125 42.296875 15.128906 42.433594 C 15.480469 42.570312 15.839844 42.671875 16.207031 42.738281 C 16.578125 42.804688 16.949219 42.832031 17.324219 42.824219 L 24.921875 42.824219 C 25.070312 42.824219 25.210938 42.796875 25.351562 42.738281 C 25.488281 42.683594 25.609375 42.601562 25.710938 42.496094 C 25.816406 42.390625 25.898438 42.269531 25.957031 42.132812 C 26.011719 41.996094 26.039062 41.855469 26.039062 41.707031 L 26.039062 40.585938 L 30.515625 40.585938 C 30.664062 40.585938 30.808594 40.558594 30.945312 40.5 C 31.082031 40.445312 31.203125 40.363281 31.308594 40.257812 C 31.414062 40.152344 31.492188 40.03125 31.550781 39.894531 C 31.605469 39.757812 31.636719 39.617188 31.636719 39.46875 L 31.636719 34.992188 C 31.636719 34.84375 31.605469 34.699219 31.550781 34.5625 C 31.492188 34.425781 31.414062 34.304688 31.308594 34.199219 C 31.203125 34.097656 31.082031 34.015625 30.945312 33.957031 C 30.808594 33.902344 30.664062 33.871094 30.515625 33.871094 L 26.039062 33.871094 L 26.039062 32.753906 C 26.039062 32.605469 26.011719 32.464844 25.957031 32.324219 C 25.898438 32.1875 25.816406 32.066406 25.710938 31.960938 C 25.609375 31.859375 25.488281 31.777344 25.351562 31.71875 C 25.210938 31.664062 25.070312 31.636719 24.921875 31.636719 L 17.324219 31.636719 C 16.949219 31.628906 16.578125 31.65625 16.207031 31.722656 C 15.839844 31.789062 15.480469 31.890625 15.128906 32.027344 C 14.78125 32.164062 14.449219 32.332031 14.132812 32.535156 C 13.816406 32.734375 13.523438 32.964844 13.25 33.226562 C 12.980469 33.484375 12.738281 33.769531 12.523438 34.078125 C 12.308594 34.382812 12.125 34.710938 11.976562 35.054688 C 11.824219 35.398438 11.707031 35.75 11.628906 36.117188 C 11.546875 36.484375 11.503906 36.855469 11.492188 37.230469 Z M 17.324219 33.871094 L 23.800781 33.871094 L 23.800781 34.992188 C 23.800781 35.140625 23.832031 35.28125 23.886719 35.421875 C 23.945312 35.558594 24.023438 35.679688 24.128906 35.78125 C 24.234375 35.886719 24.355469 35.96875 24.492188 36.027344 C 24.628906 36.082031 24.773438 36.109375 24.921875 36.109375 L 29.398438 36.109375 L 29.398438 38.347656 L 24.921875 38.347656 C 24.773438 38.347656 24.628906 38.378906 24.492188 38.433594 C 24.355469 38.492188 24.234375 38.570312 24.128906 38.675781 C 24.023438 38.78125 23.945312 38.902344 23.886719 39.039062 C 23.832031 39.175781 23.800781 39.320312 23.800781 39.46875 L 23.800781 40.585938 L 17.324219 40.585938 C 16.878906 40.585938 16.449219 40.5 16.039062 40.332031 C 15.628906 40.160156 15.265625 39.917969 14.949219 39.601562 C 14.636719 39.289062 14.394531 38.925781 14.222656 38.515625 C 14.050781 38.101562 13.96875 37.675781 13.96875 37.230469 C 13.96875 36.785156 14.050781 36.355469 14.222656 35.945312 C 14.394531 35.535156 14.636719 35.171875 14.949219 34.855469 C 15.265625 34.542969 15.628906 34.300781 16.039062 34.128906 C 16.449219 33.957031 16.878906 33.871094 17.324219 33.871094 Z M 17.324219 33.871094 " fill-opacity="1" fill-rule="nonzero"/><path fill="#ffffff" d="M 20.445312 27.160156 C 20.59375 27.160156 20.738281 27.132812 20.875 27.074219 C 21.011719 27.015625 21.132812 26.9375 21.238281 26.832031 C 21.34375 26.726562 21.421875 26.605469 21.480469 26.46875 C 21.535156 26.332031 21.566406 26.1875 21.566406 26.039062 L 21.566406 21.566406 L 26.039062 21.566406 C 26.1875 21.566406 26.332031 21.535156 26.46875 21.480469 C 26.605469 21.421875 26.726562 21.34375 26.832031 21.238281 C 26.9375 21.132812 27.015625 21.011719 27.074219 20.875 C 27.132812 20.738281 27.160156 20.59375 27.160156 20.445312 L 27.160156 14.851562 C 27.160156 14.703125 27.132812 14.558594 27.074219 14.421875 C 27.015625 14.285156 26.9375 14.164062 26.832031 14.058594 C 26.726562 13.953125 26.605469 13.875 26.46875 13.816406 C 26.332031 13.761719 26.1875 13.730469 26.039062 13.730469 L 20.445312 13.730469 C 20.296875 13.730469 20.15625 13.761719 20.015625 13.816406 C 19.878906 13.875 19.757812 13.953125 19.65625 14.058594 C 19.550781 14.164062 19.46875 14.285156 19.410156 14.421875 C 19.355469 14.558594 19.328125 14.703125 19.328125 14.851562 L 19.328125 19.328125 L 14.851562 19.328125 C 14.703125 19.328125 14.558594 19.355469 14.421875 19.410156 C 14.285156 19.46875 14.164062 19.550781 14.058594 19.65625 C 13.953125 19.757812 13.875 19.878906 13.816406 20.015625 C 13.761719 20.15625 13.730469 20.296875 13.730469 20.445312 L 13.730469 26.039062 C 13.730469 26.1875 13.761719 26.332031 13.816406 26.46875 C 13.875 26.605469 13.953125 26.726562 14.058594 26.832031 C 14.164062 26.9375 14.285156 27.015625 14.421875 27.074219 C 14.558594 27.132812 14.703125 27.160156 14.851562 27.160156 Z M 21.566406 15.96875 L 24.921875 15.96875 L 24.921875 19.328125 L 21.566406 19.328125 Z M 15.96875 21.566406 L 19.328125 21.566406 L 19.328125 24.921875 L 15.96875 24.921875 Z M 15.96875 21.566406 " fill-opacity="1" fill-rule="nonzero"/><path fill="#ffffff" d="M 54.015625 13.730469 L 48.417969 13.730469 C 48.269531 13.730469 48.128906 13.761719 47.992188 13.816406 C 47.855469 13.875 47.734375 13.953125 47.628906 14.058594 C 47.523438 14.164062 47.441406 14.285156 47.386719 14.421875 C 47.328125 14.558594 47.300781 14.703125 47.300781 14.851562 L 47.300781 20.445312 C 47.300781 20.59375 47.328125 20.738281 47.386719 20.875 C 47.441406 21.011719 47.523438 21.132812 47.628906 21.238281 C 47.734375 21.34375 47.855469 21.421875 47.992188 21.480469 C 48.128906 21.535156 48.269531 21.566406 48.417969 21.566406 L 52.894531 21.566406 L 52.894531 26.039062 C 52.894531 26.1875 52.921875 26.332031 52.980469 26.46875 C 53.035156 26.605469 53.117188 26.726562 53.222656 26.832031 C 53.328125 26.9375 53.449219 27.015625 53.585938 27.074219 C 53.722656 27.132812 53.867188 27.160156 54.015625 27.160156 L 59.609375 27.160156 C 59.757812 27.160156 59.898438 27.132812 60.035156 27.074219 C 60.175781 27.015625 60.296875 26.9375 60.398438 26.832031 C 60.503906 26.726562 60.585938 26.605469 60.640625 26.46875 C 60.699219 26.332031 60.726562 26.1875 60.726562 26.039062 L 60.726562 20.445312 C 60.726562 20.296875 60.699219 20.15625 60.640625 20.015625 C 60.585938 19.878906 60.503906 19.757812 60.398438 19.65625 C 60.296875 19.550781 60.175781 19.46875 60.035156 19.410156 C 59.898438 19.355469 59.757812 19.328125 59.609375 19.328125 L 55.132812 19.328125 L 55.132812 14.851562 C 55.132812 14.703125 55.105469 14.558594 55.046875 14.421875 C 54.992188 14.285156 54.910156 14.164062 54.804688 14.058594 C 54.699219 13.953125 54.578125 13.875 54.441406 13.816406 C 54.304688 13.761719 54.164062 13.730469 54.015625 13.730469 Z M 52.894531 19.328125 L 49.539062 19.328125 L 49.539062 15.96875 L 52.894531 15.96875 Z M 58.488281 21.566406 L 58.488281 24.921875 L 55.132812 24.921875 L 55.132812 21.566406 Z M 58.488281 21.566406 " fill-opacity="1" fill-rule="nonzero"/><path fill="#ffffff" d="M 54.015625 47.300781 C 53.867188 47.300781 53.722656 47.328125 53.585938 47.386719 C 53.449219 47.441406 53.328125 47.523438 53.222656 47.628906 C 53.117188 47.734375 53.035156 47.855469 52.980469 47.992188 C 52.921875 48.128906 52.894531 48.269531 52.894531 48.417969 L 52.894531 52.894531 L 48.417969 52.894531 C 48.269531 52.894531 48.128906 52.921875 47.992188 52.980469 C 47.855469 53.035156 47.734375 53.117188 47.628906 53.222656 C 47.523438 53.328125 47.441406 53.449219 47.386719 53.585938 C 47.328125 53.722656 47.300781 53.867188 47.300781 54.015625 L 47.300781 59.609375 C 47.300781 59.757812 47.328125 59.898438 47.386719 60.035156 C 47.441406 60.175781 47.523438 60.296875 47.628906 60.398438 C 47.734375 60.503906 47.855469 60.585938 47.992188 60.640625 C 48.128906 60.699219 48.269531 60.726562 48.417969 60.726562 L 54.015625 60.726562 C 54.164062 60.726562 54.304688 60.699219 54.441406 60.640625 C 54.578125 60.585938 54.699219 60.503906 54.804688 60.398438 C 54.910156 60.296875 54.992188 60.175781 55.046875 60.035156 C 55.105469 59.898438 55.132812 59.757812 55.132812 59.609375 L 55.132812 55.132812 L 59.609375 55.132812 C 59.757812 55.132812 59.898438 55.105469 60.035156 55.046875 C 60.175781 54.992188 60.296875 54.910156 60.398438 54.804688 C 60.503906 54.699219 60.585938 54.578125 60.640625 54.441406 C 60.699219 54.304688 60.726562 54.164062 60.726562 54.015625 L 60.726562 48.417969 C 60.726562 48.269531 60.699219 48.128906 60.640625 47.992188 C 60.585938 47.855469 60.503906 47.734375 60.398438 47.628906 C 60.296875 47.523438 60.175781 47.441406 60.035156 47.386719 C 59.898438 47.328125 59.757812 47.300781 59.609375 47.300781 Z M 52.894531 58.488281 L 49.539062 58.488281 L 49.539062 55.132812 L 52.894531 55.132812 Z M 58.488281 52.894531 L 55.132812 52.894531 L 55.132812 49.539062 L 58.488281 49.539062 Z M 58.488281 52.894531 " fill-opacity="1" fill-rule="nonzero"/><path fill="#ffffff" d="M 20.445312 60.726562 L 26.039062 60.726562 C 26.1875 60.726562 26.332031 60.699219 26.46875 60.640625 C 26.605469 60.585938 26.726562 60.503906 26.832031 60.398438 C 26.9375 60.296875 27.015625 60.175781 27.074219 60.035156 C 27.132812 59.898438 27.160156 59.757812 27.160156 59.609375 L 27.160156 54.015625 C 27.160156 53.867188 27.132812 53.722656 27.074219 53.585938 C 27.015625 53.449219 26.9375 53.328125 26.832031 53.222656 C 26.726562 53.117188 26.605469 53.035156 26.46875 52.980469 C 26.332031 52.921875 26.1875 52.894531 26.039062 52.894531 L 21.566406 52.894531 L 21.566406 48.417969 C 21.566406 48.269531 21.535156 48.128906 21.480469 47.992188 C 21.421875 47.855469 21.34375 47.734375 21.238281 47.628906 C 21.132812 47.523438 21.011719 47.441406 20.875 47.386719 C 20.738281 47.328125 20.59375 47.300781 20.445312 47.300781 L 14.851562 47.300781 C 14.703125 47.300781 14.558594 47.328125 14.421875 47.386719 C 14.285156 47.441406 14.164062 47.523438 14.058594 47.628906 C 13.953125 47.734375 13.875 47.855469 13.816406 47.992188 C 13.761719 48.128906 13.730469 48.269531 13.730469 48.417969 L 13.730469 54.015625 C 13.730469 54.164062 13.761719 54.304688 13.816406 54.441406 C 13.875 54.578125 13.953125 54.699219 14.058594 54.804688 C 14.164062 54.910156 14.285156 54.992188 14.421875 55.046875 C 14.558594 55.105469 14.703125 55.132812 14.851562 55.132812 L 19.328125 55.132812 L 19.328125 59.609375 C 19.328125 59.757812 19.355469 59.898438 19.410156 60.035156 C 19.46875 60.175781 19.550781 60.296875 19.65625 60.398438 C 19.757812 60.503906 19.878906 60.585938 20.015625 60.640625 C 20.15625 60.699219 20.296875 60.726562 20.445312 60.726562 Z M 21.566406 55.132812 L 24.921875 55.132812 L 24.921875 58.488281 L 21.566406 58.488281 Z M 15.96875 52.894531 L 15.96875 49.539062 L 19.328125 49.539062 L 19.328125 52.894531 Z M 15.96875 52.894531 " fill-opacity="1" fill-rule="nonzero"/></svg>