<svg xmlns="http://www.w3.org/2000/svg" xmlns:xlink="http://www.w3.org/1999/xlink" width="99" zoomAndPan="magnify" viewBox="0 0 75 74.999997" height="99" preserveAspectRatio="xMidYMid meet" version="1.0"><defs><clipPath id="98fedb5b7c"><path d="M 7.5 4.820312 L 39 4.820312 L 39 36 L 7.5 36 Z M 7.5 4.820312 " clip-rule="nonzero"/></clipPath><clipPath id="4ec038f18d"><path d="M 7.5 37 L 39 37 L 39 67.820312 L 7.5 67.820312 Z M 7.5 37 " clip-rule="nonzero"/></clipPath></defs><g clip-path="url(#98fedb5b7c)"><path fill="#ffffff" d="M 38.144531 19.964844 C 38.144531 11.609375 31.355469 4.820312 22.996094 4.820312 C 14.640625 4.820312 7.851562 11.609375 7.851562 19.964844 C 7.851562 28.324219 14.640625 35.113281 22.996094 35.113281 C 31.355469 35.113281 38.144531 28.324219 38.144531 19.964844 Z M 17.003906 13.972656 C 18.609375 12.363281 20.742188 11.484375 22.996094 11.484375 C 25.273438 11.484375 27.40625 12.363281 28.992188 13.972656 C 29.808594 14.785156 29.808594 16.101562 28.992188 16.917969 C 28.597656 17.335938 28.054688 17.542969 27.53125 17.542969 C 26.988281 17.542969 26.445312 17.335938 26.046875 16.917969 C 24.417969 15.308594 21.578125 15.308594 19.96875 16.917969 C 19.152344 17.730469 17.816406 17.730469 17.003906 16.917969 C 16.1875 16.101562 16.1875 14.785156 17.003906 13.972656 Z M 17.003906 23.015625 C 17.816406 22.203125 19.152344 22.203125 19.96875 23.015625 C 21.578125 24.625 24.417969 24.625 26.046875 23.015625 C 26.863281 22.203125 28.179688 22.203125 28.992188 23.015625 C 29.808594 23.832031 29.808594 25.148438 28.992188 25.960938 C 27.40625 27.570312 25.273438 28.449219 22.996094 28.449219 C 20.742188 28.449219 18.609375 27.570312 17.003906 25.960938 C 16.1875 25.148438 16.1875 23.832031 17.003906 23.015625 Z M 17.003906 23.015625 " fill-opacity="1" fill-rule="nonzero"/></g><path fill="#ffffff" d="M 55.335938 18.839844 C 51.285156 18.839844 47.480469 20.40625 44.621094 23.265625 C 38.707031 29.179688 38.707031 38.789062 44.621094 44.679688 C 47.480469 47.542969 51.285156 49.128906 55.335938 49.128906 C 59.367188 49.128906 63.191406 47.542969 66.03125 44.679688 C 71.945312 38.789062 71.945312 29.179688 66.03125 23.265625 C 63.191406 20.40625 59.367188 18.839844 55.335938 18.839844 Z M 55.335938 42.464844 C 53.082031 42.464844 50.949219 41.566406 49.339844 39.980469 C 47.730469 38.371094 46.855469 36.238281 46.855469 33.984375 C 46.855469 32.8125 47.796875 31.894531 48.945312 31.894531 C 50.09375 31.894531 51.03125 32.8125 51.03125 33.984375 C 51.03125 35.132812 51.472656 36.199219 52.285156 37.011719 C 53.101562 37.828125 54.1875 38.289062 55.335938 38.289062 C 56.484375 38.289062 57.425781 39.207031 57.425781 40.375 C 57.425781 41.527344 56.484375 42.464844 55.335938 42.464844 Z M 61.730469 36.074219 C 60.578125 36.074219 59.640625 35.132812 59.640625 33.984375 C 59.640625 32.835938 59.179688 31.75 58.367188 30.933594 C 57.550781 30.121094 56.484375 29.679688 55.335938 29.679688 C 54.1875 29.679688 53.246094 28.742188 53.246094 27.589844 C 53.246094 26.421875 54.1875 25.503906 55.335938 25.503906 C 57.59375 25.503906 59.722656 26.378906 61.332031 27.988281 C 62.941406 29.574219 63.816406 31.707031 63.816406 33.984375 C 63.816406 35.132812 62.878906 36.074219 61.730469 36.074219 Z M 61.730469 36.074219 " fill-opacity="1" fill-rule="nonzero"/><g clip-path="url(#4ec038f18d)"><path fill="#ffffff" d="M 12.300781 63.0625 C 15.144531 65.925781 18.964844 67.492188 22.996094 67.492188 C 27.050781 67.492188 30.851562 65.925781 33.714844 63.0625 C 36.578125 60.203125 38.144531 56.398438 38.144531 52.347656 C 38.144531 48.292969 36.578125 44.492188 33.714844 41.628906 C 27.800781 35.71875 18.191406 35.738281 12.300781 41.628906 C 9.441406 44.492188 7.851562 48.292969 7.851562 52.347656 C 7.851562 56.398438 9.441406 60.203125 12.300781 63.0625 Z M 27.300781 52.347656 C 27.300781 51.199219 28.242188 50.257812 29.390625 50.257812 C 30.539062 50.257812 31.480469 51.199219 31.480469 52.347656 C 31.480469 54.601562 30.601562 56.734375 28.992188 58.34375 C 27.40625 59.949219 25.273438 60.828125 22.996094 60.828125 C 21.847656 60.828125 20.910156 59.886719 20.910156 58.738281 C 20.910156 57.589844 21.847656 56.648438 22.996094 56.648438 C 24.148438 56.648438 25.234375 56.191406 26.046875 55.398438 C 26.863281 54.582031 27.300781 53.496094 27.300781 52.347656 Z M 17.003906 46.351562 C 18.609375 44.742188 20.742188 43.867188 22.996094 43.867188 C 24.148438 43.867188 25.085938 44.804688 25.085938 45.953125 C 25.085938 47.101562 24.148438 48.042969 22.996094 48.042969 C 21.847656 48.042969 20.785156 48.480469 19.96875 49.296875 C 19.152344 50.113281 18.695312 51.199219 18.695312 52.347656 C 18.695312 53.496094 17.753906 54.4375 16.605469 54.4375 C 15.457031 54.4375 14.515625 53.496094 14.515625 52.347656 C 14.515625 50.089844 15.414062 47.960938 17.003906 46.351562 Z M 17.003906 46.351562 " fill-opacity="1" fill-rule="nonzero"/></g></svg>