<svg xmlns="http://www.w3.org/2000/svg" xmlns:xlink="http://www.w3.org/1999/xlink" width="99" zoomAndPan="magnify" viewBox="0 0 75 74.999997" height="99" preserveAspectRatio="xMidYMid meet" version="1.0"><defs><clipPath id="2fff50f7d6"><path d="M 3.660156 3.660156 L 18 3.660156 L 18 18 L 3.660156 18 Z M 3.660156 3.660156 " clip-rule="nonzero"/></clipPath><clipPath id="78e7994bac"><path d="M 56 56 L 70.410156 56 L 70.410156 70.410156 L 56 70.410156 Z M 56 56 " clip-rule="nonzero"/></clipPath><clipPath id="ebeb835901"><path d="M 6 56 L 21 56 L 21 70.410156 L 6 70.410156 Z M 6 56 " clip-rule="nonzero"/></clipPath></defs><path fill="#ffffff" d="M 38.453125 14.378906 C 39.738281 14.378906 40.78125 15.421875 40.78125 16.707031 L 40.78125 26.027344 C 40.78125 27.3125 39.738281 28.355469 38.453125 28.355469 C 37.164062 28.355469 36.121094 27.3125 36.121094 26.027344 L 36.121094 16.707031 C 36.121094 15.421875 37.164062 14.378906 38.453125 14.378906 Z M 38.453125 14.378906 " fill-opacity="1" fill-rule="evenodd"/><path fill="#ffffff" d="M 58.203125 18.699219 C 59.113281 19.609375 59.113281 21.085938 58.203125 21.996094 L 48.886719 31.3125 C 47.976562 32.222656 46.5 32.222656 45.589844 31.3125 C 44.679688 30.402344 44.679688 28.929688 45.589844 28.019531 L 54.910156 18.699219 C 55.820312 17.789062 57.292969 17.789062 58.203125 18.699219 Z M 58.203125 18.699219 " fill-opacity="1" fill-rule="evenodd"/><path fill="#ffffff" d="M 62.527344 38.453125 C 62.527344 39.738281 61.484375 40.78125 60.195312 40.78125 L 50.878906 40.78125 C 49.589844 40.78125 48.546875 39.738281 48.546875 38.453125 C 48.546875 37.164062 49.589844 36.121094 50.878906 36.121094 L 60.195312 36.121094 C 61.484375 36.121094 62.527344 37.164062 62.527344 38.453125 Z M 62.527344 38.453125 " fill-opacity="1" fill-rule="evenodd"/><path fill="#ffffff" d="M 61.308594 61.308594 C 60.398438 62.21875 58.925781 62.21875 58.015625 61.308594 L 45.589844 48.886719 C 44.679688 47.976562 44.679688 46.5 45.589844 45.589844 C 46.5 44.679688 47.976562 44.679688 48.886719 45.589844 L 61.308594 58.015625 C 62.21875 58.925781 62.21875 60.398438 61.308594 61.308594 Z M 61.308594 61.308594 " fill-opacity="1" fill-rule="evenodd"/><path fill="#ffffff" d="M 38.453125 48.546875 C 39.738281 48.546875 40.78125 49.589844 40.78125 50.878906 L 40.78125 60.195312 C 40.78125 61.484375 39.738281 62.527344 38.453125 62.527344 C 37.164062 62.527344 36.121094 61.484375 36.121094 60.195312 L 36.121094 50.878906 C 36.121094 49.589844 37.164062 48.546875 38.453125 48.546875 Z M 38.453125 48.546875 " fill-opacity="1" fill-rule="evenodd"/><path fill="#ffffff" d="M 31.3125 45.589844 C 32.222656 46.5 32.222656 47.976562 31.3125 48.886719 L 18.886719 61.308594 C 17.980469 62.21875 16.503906 62.21875 15.59375 61.308594 C 14.683594 60.398438 14.683594 58.925781 15.59375 58.015625 L 28.019531 45.589844 C 28.929688 44.679688 30.402344 44.679688 31.3125 45.589844 Z M 31.3125 45.589844 " fill-opacity="1" fill-rule="evenodd"/><path fill="#ffffff" d="M 28.355469 38.453125 C 28.355469 39.738281 27.3125 40.78125 26.027344 40.78125 L 16.707031 40.78125 C 15.421875 40.78125 14.378906 39.738281 14.378906 38.453125 C 14.378906 37.164062 15.421875 36.121094 16.707031 36.121094 L 26.027344 36.121094 C 27.3125 36.121094 28.355469 37.164062 28.355469 38.453125 Z M 28.355469 38.453125 " fill-opacity="1" fill-rule="evenodd"/><path fill="#ffffff" d="M 31.3125 31.3125 C 30.402344 32.222656 28.929688 32.222656 28.019531 31.3125 L 12.488281 15.78125 C 11.578125 14.871094 11.578125 13.398438 12.488281 12.488281 C 13.398438 11.578125 14.871094 11.578125 15.78125 12.488281 L 31.3125 28.019531 C 32.222656 28.929688 32.222656 30.402344 31.3125 31.3125 Z M 31.3125 31.3125 " fill-opacity="1" fill-rule="evenodd"/><path fill="#ffffff" d="M 38.453125 23.695312 C 30.304688 23.695312 23.695312 30.304688 23.695312 38.453125 C 23.695312 46.601562 30.304688 53.207031 38.453125 53.207031 C 46.601562 53.207031 53.207031 46.601562 53.207031 38.453125 C 53.207031 30.304688 46.601562 23.695312 38.453125 23.695312 Z M 38.453125 23.695312 " fill-opacity="1" fill-rule="evenodd"/><g clip-path="url(#2fff50f7d6)"><path fill="#ffffff" d="M 10.496094 3.507812 C 6.636719 3.507812 3.507812 6.636719 3.507812 10.496094 C 3.507812 14.355469 6.636719 17.484375 10.496094 17.484375 C 14.355469 17.484375 17.484375 14.355469 17.484375 10.496094 C 17.484375 6.636719 14.355469 3.507812 10.496094 3.507812 Z M 10.496094 3.507812 " fill-opacity="1" fill-rule="evenodd"/></g><path fill="#ffffff" d="M 60.195312 9.71875 C 56.335938 9.71875 53.207031 12.847656 53.207031 16.707031 C 53.207031 20.566406 56.335938 23.695312 60.195312 23.695312 C 64.054688 23.695312 67.183594 20.566406 67.183594 16.707031 C 67.183594 12.847656 64.054688 9.71875 60.195312 9.71875 Z M 60.195312 9.71875 " fill-opacity="1" fill-rule="evenodd"/><g clip-path="url(#78e7994bac)"><path fill="#ffffff" d="M 63.300781 56.3125 C 59.441406 56.3125 56.3125 59.441406 56.3125 63.300781 C 56.3125 67.160156 59.441406 70.292969 63.300781 70.292969 C 67.160156 70.292969 70.292969 67.160156 70.292969 63.300781 C 70.292969 59.441406 67.160156 56.3125 63.300781 56.3125 Z M 63.300781 56.3125 " fill-opacity="1" fill-rule="evenodd"/></g><g clip-path="url(#ebeb835901)"><path fill="#ffffff" d="M 13.601562 56.3125 C 9.742188 56.3125 6.613281 59.441406 6.613281 63.300781 C 6.613281 67.160156 9.742188 70.292969 13.601562 70.292969 C 17.460938 70.292969 20.589844 67.160156 20.589844 63.300781 C 20.589844 59.441406 17.460938 56.3125 13.601562 56.3125 Z M 13.601562 56.3125 " fill-opacity="1" fill-rule="evenodd"/></g></svg>